<?xml version="1.0" standalone="no"?>
<!DOCTYPE svg PUBLIC "-//W3C//DTD SVG 20010904//EN"
 "http://www.w3.org/TR/2001/REC-SVG-20010904/DTD/svg10.dtd">
<svg version="1.0" xmlns="http://www.w3.org/2000/svg"
 width="910.000000pt" height="531.000000pt" viewBox="0 0 910.000000 531.000000"
 preserveAspectRatio="xMidYMid meet">

<g transform="translate(0.000000,531.000000) scale(0.100000,-0.100000)"
fill="#000000" stroke="none">
<path d="M4370 5114 c-187 -36 -361 -157 -458 -317 -83 -137 -113 -322 -77
-481 20 -94 80 -217 137 -281 24 -27 36 -46 27 -43 -9 4 -70 25 -135 48 -134
47 -175 69 -203 109 -20 27 -22 28 -74 20 -209 -33 -457 -151 -548 -262 l-28
-34 132 -6 c338 -16 698 -121 962 -282 66 -40 337 -178 371 -189 24 -7 283
116 409 194 252 156 609 260 957 277 l127 6 -28 34 c-89 108 -296 210 -520
256 l-74 16 -46 -48 c-36 -37 -65 -55 -129 -79 -46 -18 -88 -32 -93 -32 -5 0
-37 -11 -71 -25 -34 -14 -63 -24 -64 -22 -2 2 19 30 46 62 169 200 199 497 73
738 -73 140 -222 263 -383 317 -64 21 -249 36 -310 24z m238 -279 c147 -35
281 -138 346 -268 139 -277 -1 -586 -314 -693 -81 -28 -243 -25 -330 5 -145
51 -268 166 -321 301 -33 85 -37 219 -10 309 78 255 358 410 629 346z"/>
<path d="M2845 3593 c-78 -9 -215 -36 -220 -42 -2 -4 123 -212 278 -462 156
-250 286 -459 290 -466 12 -19 -47 4 -101 41 -29 19 -55 47 -67 72 -29 59
-337 544 -346 544 -10 0 -66 -211 -78 -297 -6 -39 -11 -110 -11 -156 0 -233
80 -381 253 -466 132 -65 186 -75 386 -76 l175 0 105 -169 106 -169 110 -22
c235 -48 431 -140 571 -268 43 -39 54 -45 54 -29 0 29 -218 1553 -228 1587
-10 38 -67 77 -237 160 -234 114 -446 180 -672 210 -103 14 -290 18 -368 8z"/>
<path d="M5735 3585 c-208 -30 -425 -97 -640 -199 -83 -40 -226 -119 -252
-140 -3 -2 -233 -1605 -233 -1623 0 -10 19 2 54 35 129 122 337 219 571 267
l110 22 110 176 c103 164 112 175 135 169 14 -4 95 -7 180 -7 173 1 256 18
372 76 243 123 310 426 186 847 -11 39 -24 72 -27 72 -8 0 -316 -486 -342
-539 -10 -22 -34 -51 -52 -65 -37 -28 -124 -69 -136 -64 -4 2 122 212 281 467
159 255 285 468 281 472 -4 4 -46 15 -93 24 -118 23 -378 28 -505 10z m103
-411 c12 -3 22 -10 22 -14 0 -4 -74 -137 -165 -296 l-165 -289 -99 -5 c-111
-6 -149 -23 -165 -76 -15 -51 -20 -55 -96 -80 -41 -14 -119 -47 -172 -74 -88
-43 -97 -46 -93 -26 3 11 30 161 60 331 31 171 58 319 60 331 9 42 325 168
485 194 41 6 82 13 90 15 22 6 212 -3 238 -11z"/>
<path d="M400 1120 c-106 -17 -169 -48 -241 -119 -49 -49 -71 -81 -88 -124
-46 -125 -47 -269 -2 -387 60 -157 222 -259 411 -260 184 0 357 118 398 273
l10 37 -98 0 -98 0 -21 -35 c-59 -101 -236 -123 -344 -42 -64 49 -97 122 -97
216 0 168 96 263 262 262 73 0 154 -40 178 -89 l15 -32 102 0 102 0 -9 29
c-54 189 -259 305 -480 271z"/>
<path d="M2695 1119 c-102 -17 -177 -66 -218 -143 -17 -32 -22 -58 -22 -121 0
-141 50 -188 253 -242 132 -35 169 -53 189 -95 18 -37 0 -94 -37 -113 -37 -19
-123 -19 -160 0 -36 19 -67 58 -75 95 l-7 30 -100 0 -100 0 7 -47 c20 -144
129 -233 304 -249 142 -13 277 36 326 119 60 104 54 236 -16 312 -46 50 -104
77 -225 105 -109 26 -153 46 -165 77 -15 41 -10 63 20 94 24 24 38 29 76 29
25 0 59 -7 75 -15 30 -15 60 -61 60 -90 0 -12 16 -15 95 -15 l95 0 0 33 c0 41
-33 114 -68 150 -39 41 -110 75 -183 87 -35 5 -66 9 -69 9 -3 -1 -28 -5 -55
-10z"/>
<path d="M3437 1120 c-70 -12 -132 -46 -175 -95 -92 -104 -82 -272 21 -346 40
-29 75 -42 225 -80 105 -27 142 -55 142 -109 0 -21 -3 -46 -6 -55 -18 -45
-135 -60 -203 -25 -37 18 -71 68 -71 104 0 14 -15 16 -100 16 -115 0 -114 1
-84 -101 33 -109 144 -182 297 -195 163 -14 295 47 341 158 18 42 22 172 6
212 -16 43 -78 103 -129 125 -27 11 -89 30 -138 41 -48 11 -101 25 -116 32
-62 25 -76 91 -28 139 24 24 38 29 76 29 25 0 59 -7 75 -15 30 -15 60 -61 60
-90 0 -12 16 -15 96 -15 l97 0 -6 45 c-13 95 -75 168 -172 204 -63 23 -146 31
-208 21z"/>
<path d="M5015 1115 c-187 -34 -310 -165 -338 -361 -25 -183 44 -360 176 -447
85 -56 146 -72 272 -71 95 0 119 3 173 26 175 72 263 211 263 415 1 156 -37
251 -136 341 -62 57 -131 87 -233 102 -81 12 -89 11 -177 -5z m216 -193 c159
-62 191 -336 53 -451 -76 -63 -196 -76 -284 -31 -48 25 -104 88 -121 136 -17
51 -17 159 0 208 16 45 72 111 114 133 60 30 166 33 238 5z"/>
<path d="M6020 1119 c-187 -28 -324 -168 -350 -359 -19 -133 7 -255 73 -352
71 -103 184 -164 326 -175 198 -14 369 75 441 230 73 155 60 350 -30 485 -90
134 -266 200 -460 171z m207 -201 c53 -25 110 -89 125 -142 18 -67 13 -169
-12 -220 -29 -61 -88 -112 -151 -130 -66 -20 -92 -20 -160 0 -68 20 -138 88
-158 154 -16 55 -17 147 -1 197 46 142 214 208 357 141z"/>
<path d="M1010 675 l0 -435 250 0 250 0 0 90 0 90 -155 0 -155 0 0 345 0 345
-95 0 -95 0 0 -435z"/>
<path d="M1701 687 c-94 -232 -171 -428 -171 -435 0 -9 27 -12 98 -12 l98 0
33 90 33 90 163 0 163 0 33 -86 c18 -47 38 -88 44 -90 6 -3 53 -3 103 -2 l91
3 -175 430 c-95 236 -174 431 -174 432 0 2 -38 3 -84 3 l-83 0 -172 -423z
m329 -29 l29 -78 -104 0 -104 0 23 63 c13 34 36 97 52 140 l29 77 23 -62 c13
-35 37 -98 52 -140z"/>
<path d="M3980 676 l0 -436 95 0 95 0 2 166 3 165 115 -165 115 -166 118 0
c64 0 117 2 117 5 0 2 -58 80 -128 172 l-129 168 51 23 c106 48 141 106 141
237 0 130 -35 189 -140 237 -46 21 -67 23 -252 26 l-203 4 0 -436z m331 264
c50 -14 71 -41 77 -98 4 -44 1 -53 -26 -83 -29 -32 -34 -34 -111 -37 l-81 -4
0 116 0 116 53 0 c28 0 68 -5 88 -10z"/>
<path d="M6781 1063 c-5 -27 -51 -218 -101 -427 -49 -208 -90 -383 -90 -388 0
-5 43 -7 97 -6 l97 3 55 263 c31 144 58 262 61 262 3 0 25 -62 49 -137 23 -76
60 -195 82 -265 l40 -128 68 0 67 0 84 270 c46 149 87 265 91 258 3 -7 30
-129 59 -270 l53 -258 100 0 c98 0 99 0 93 23 -3 12 -49 208 -103 434 l-98
413 -90 0 -90 0 -80 -256 c-43 -140 -82 -257 -86 -259 -3 -3 -12 15 -18 38 -7
23 -44 140 -82 260 l-70 217 -89 0 -88 0 -11 -47z"/>
<path d="M7800 675 l0 -435 95 0 95 0 0 435 0 435 -95 0 -95 0 0 -435z"/>
<path d="M8346 898 c-47 -117 -126 -312 -175 -433 l-90 -220 91 -3 c50 -1 97
-1 103 2 6 2 26 43 44 90 l33 86 162 0 163 0 34 -87 34 -88 103 -3 103 -3 -14
33 c-8 18 -87 214 -177 436 l-163 402 -82 0 -83 0 -86 -212z m222 -316 c-26
-2 -72 -2 -101 0 l-54 3 50 139 50 138 51 -138 51 -139 -47 -3z"/>
</g>
</svg>
